<?xml version="1.0" encoding="UTF-8" standalone="no"?>
<svg
   id="Camada_1"
   data-name="Camada 1"
   viewBox="0 0 332.03497 52.357479"
   version="1.1"
   sodipodi:docname="logowhite.svg"
   inkscape:version="1.2.1 (9c6d41e410, 2022-07-14)"
   inkscape:export-filename="logowhite.svg"
   inkscape:export-xdpi="96"
   inkscape:export-ydpi="96"
   width="332.03497"
   height="52.357479"
   xmlns:inkscape="http://www.inkscape.org/namespaces/inkscape"
   xmlns:sodipodi="http://sodipodi.sourceforge.net/DTD/sodipodi-0.dtd"
   xmlns="http://www.w3.org/2000/svg"
   xmlns:svg="http://www.w3.org/2000/svg">
  <sodipodi:namedview
     id="namedview73"
     pagecolor="#ffffff"
     bordercolor="#000000"
     borderopacity="0.25"
     inkscape:showpageshadow="2"
     inkscape:pageopacity="0.0"
     inkscape:pagecheckerboard="0"
     inkscape:deskcolor="#d1d1d1"
     showgrid="false"
     inkscape:zoom="1.628"
     inkscape:cx="178.4398"
     inkscape:cy="3.992629"
     inkscape:window-width="1634"
     inkscape:window-height="1008"
     inkscape:window-x="2830"
     inkscape:window-y="0"
     inkscape:window-maximized="0"
     inkscape:current-layer="Camada_1"
     showborder="false" />
  <defs
     id="defs44">
    <style
       id="style42">.cls-1{fill:#fff;}</style>
    <clipPath
       clipPathUnits="userSpaceOnUse"
       id="clipPath753">
      <rect
         style="fill:#ffffff;stroke-width:0.747696"
         id="rect755"
         width="339.06635"
         height="61.42506"
         x="78.624077"
         y="218.6732" />
    </clipPath>
    <clipPath
       clipPathUnits="userSpaceOnUse"
       id="clipPath757">
      <rect
         style="fill:#ffffff;stroke-width:0.747696"
         id="rect759"
         width="339.06635"
         height="61.42506"
         x="78.624077"
         y="218.6732" />
    </clipPath>
    <clipPath
       clipPathUnits="userSpaceOnUse"
       id="clipPath761">
      <rect
         style="fill:#ffffff;stroke-width:0.747696"
         id="rect763"
         width="339.06635"
         height="61.42506"
         x="78.624077"
         y="218.6732" />
    </clipPath>
    <clipPath
       clipPathUnits="userSpaceOnUse"
       id="clipPath765">
      <rect
         style="fill:#ffffff;stroke-width:0.747696"
         id="rect767"
         width="339.06635"
         height="61.42506"
         x="78.624077"
         y="218.6732" />
    </clipPath>
    <clipPath
       clipPathUnits="userSpaceOnUse"
       id="clipPath769">
      <rect
         style="fill:#ffffff;stroke-width:0.747696"
         id="rect771"
         width="339.06635"
         height="61.42506"
         x="78.624077"
         y="218.6732" />
    </clipPath>
    <clipPath
       clipPathUnits="userSpaceOnUse"
       id="clipPath773">
      <rect
         style="fill:#ffffff;stroke-width:0.747696"
         id="rect775"
         width="339.06635"
         height="61.42506"
         x="78.624077"
         y="218.6732" />
    </clipPath>
    <clipPath
       clipPathUnits="userSpaceOnUse"
       id="clipPath777">
      <rect
         style="fill:#ffffff;stroke-width:0.747696"
         id="rect779"
         width="339.06635"
         height="61.42506"
         x="78.624077"
         y="218.6732" />
    </clipPath>
    <clipPath
       clipPathUnits="userSpaceOnUse"
       id="clipPath781">
      <rect
         style="fill:#ffffff;stroke-width:0.747696"
         id="rect783"
         width="339.06635"
         height="61.42506"
         x="78.624077"
         y="218.6732" />
    </clipPath>
    <clipPath
       clipPathUnits="userSpaceOnUse"
       id="clipPath785">
      <rect
         style="fill:#ffffff;stroke-width:0.747696"
         id="rect787"
         width="339.06635"
         height="61.42506"
         x="78.624077"
         y="218.6732" />
    </clipPath>
    <clipPath
       clipPathUnits="userSpaceOnUse"
       id="clipPath789">
      <rect
         style="fill:#ffffff;stroke-width:0.747696"
         id="rect791"
         width="339.06635"
         height="61.42506"
         x="78.624077"
         y="218.6732" />
    </clipPath>
    <clipPath
       clipPathUnits="userSpaceOnUse"
       id="clipPath793">
      <rect
         style="fill:#ffffff;stroke-width:0.747696"
         id="rect795"
         width="339.06635"
         height="61.42506"
         x="78.624077"
         y="218.6732" />
    </clipPath>
    <clipPath
       clipPathUnits="userSpaceOnUse"
       id="clipPath797">
      <rect
         style="fill:#ffffff;stroke-width:0.747696"
         id="rect799"
         width="339.06635"
         height="61.42506"
         x="78.624077"
         y="218.6732" />
    </clipPath>
    <clipPath
       clipPathUnits="userSpaceOnUse"
       id="clipPath801">
      <rect
         style="fill:#ffffff;stroke-width:0.747696"
         id="rect803"
         width="339.06635"
         height="61.42506"
         x="78.624077"
         y="218.6732" />
    </clipPath>
  </defs>
  <path
     class="cls-1"
     d="m 159.65,243.49 v 21.93 H 153 v -34.14 h 5.34 l 17.6,22.5 v -22.45 h 6.58 v 34.09 h -5.48 z"
     id="path46"
     clip-path="url(#clipPath801)"
     transform="translate(-81.57,-223.79)" />
  <path
     class="cls-1"
     d="m 190.71,256.09 v -15.63 h 6.49 v 14.21 a 7.23,7.23 0 0 0 1.06,4.3 3.6,3.6 0 0 0 3.12,1.45 6.58,6.58 0 0 0 2.48,-0.5 6.9,6.9 0 0 0 2.26,-1.48 8.59,8.59 0 0 0 1.76,-2.5 v -15.48 h 6.49 v 17.77 a 2.39,2.39 0 0 0 0.33,1.43 1.67,1.67 0 0 0 1.16,0.52 v 5.24 c -0.64,0.1 -1.18,0.17 -1.61,0.22 -0.43,0.05 -0.83,0.07 -1.18,0.07 a 4.51,4.51 0 0 1 -2.77,-0.81 3.34,3.34 0 0 1 -1.32,-2.15 l -0.14,-2 a 11.08,11.08 0 0 1 -4.31,3.83 12.89,12.89 0 0 1 -5.84,1.31 7.21,7.21 0 0 1 -5.94,-2.5 c -1.36,-1.66 -2.04,-4.09 -2.04,-7.3 z"
     id="path48"
     clip-path="url(#clipPath797)"
     transform="translate(-81.57,-223.79)" />
  <path
     class="cls-1"
     d="m 245.58,237.1 h -10.87 v 28.32 h -6.59 V 237.1 h -11 v -5.82 h 28.42 z"
     id="path50"
     clip-path="url(#clipPath793)"
     transform="translate(-81.57,-223.79)" />
  <path
     class="cls-1"
     d="m 263.8,245.8 a 12.81,12.81 0 0 0 -5.29,1.13 6.91,6.91 0 0 0 -3.37,3.2 v 15.29 h -6.39 v -25 h 5.91 v 5.15 a 11.41,11.41 0 0 1 3.44,-4.09 8.38,8.38 0 0 1 4.4,-1.63 4.18,4.18 0 0 0 0.77,0 1.16,1.16 0 0 1 0.53,0.07 z"
     id="path52"
     clip-path="url(#clipPath789)"
     transform="translate(-81.57,-223.79)" />
  <path
     class="cls-1"
     d="m 267.41,258.06 a 6.79,6.79 0 0 1 1.37,-4.23 9,9 0 0 1 3.8,-2.82 14.46,14.46 0 0 1 5.65,-1 22.22,22.22 0 0 1 3.22,0.24 11.48,11.48 0 0 1 2.83,0.77 v -1.38 a 4.61,4.61 0 0 0 -1.39,-3.59 6,6 0 0 0 -4.18,-1.28 11,11 0 0 0 -4,0.72 21.57,21.57 0 0 0 -4,2.07 l -2,-4.18 a 18.52,18.52 0 0 1 5.08,-2.48 18.8,18.8 0 0 1 5.5,-0.79 q 5.39,0 8.39,2.63 3,2.63 3,7.61 v 7.91 a 2.24,2.24 0 0 0 0.36,1.43 1.74,1.74 0 0 0 1.18,0.52 v 5.24 c -0.58,0.1 -1.1,0.18 -1.57,0.24 a 5.42,5.42 0 0 1 -1.17,0 4.36,4.36 0 0 1 -2.91,-0.84 3.34,3.34 0 0 1 -1.18,-2.09 l -0.15,-1.3 a 11.46,11.46 0 0 1 -4.13,3.27 11.63,11.63 0 0 1 -5,1.15 9.63,9.63 0 0 1 -4.5,-1 8,8 0 0 1 -3.12,-2.83 7.21,7.21 0 0 1 -1.08,-3.99 z m 15.67,1.21 a 4.3,4.3 0 0 0 0.87,-1.08 2.29,2.29 0 0 0 0.33,-1 v -2.49 a 13,13 0 0 0 -2.5,-0.72 12.81,12.81 0 0 0 -2.54,-0.26 7.43,7.43 0 0 0 -4.12,1.05 3.23,3.23 0 0 0 -1.61,2.79 3.45,3.45 0 0 0 0.53,1.81 3.71,3.71 0 0 0 1.52,1.38 5.08,5.08 0 0 0 2.43,0.52 7.41,7.41 0 0 0 2.83,-0.57 6.75,6.75 0 0 0 2.26,-1.43 z"
     id="path54"
     clip-path="url(#clipPath785)"
     transform="translate(-81.57,-223.79)" />
  <path
     class="cls-1"
     d="m 298.66,236.66 v -6.34 h 6.4 v 6.34 z m 0,28.76 v -25.2 h 6.4 v 25.2 z"
     id="path56"
     clip-path="url(#clipPath781)"
     transform="translate(-81.57,-223.79)" />
  <path
     class="cls-1"
     d="m 336.27,265.42 h -6.45 v -13.93 a 7.29,7.29 0 0 0 -1,-4.36 3.48,3.48 0 0 0 -3,-1.38 5.81,5.81 0 0 0 -2.62,0.66 7.88,7.88 0 0 0 -2.36,1.81 8.6,8.6 0 0 0 -1.61,2.65 v 14.55 h -6.39 v -25 h 5.82 v 4.66 a 9,9 0 0 1 2.45,-2.71 11.73,11.73 0 0 1 3.41,-1.71 13.5,13.5 0 0 1 4.14,-0.62 8,8 0 0 1 3.87,0.83 5.78,5.78 0 0 1 2.31,2.26 10.12,10.12 0 0 1 1.1,3.16 19.56,19.56 0 0 1 0.32,3.5 z"
     id="path58"
     clip-path="url(#clipPath777)"
     transform="translate(-81.57,-223.79)" />
  <path
     class="cls-1"
     d="m 343.81,236.66 v -6.34 h 6.4 v 6.34 z m 0,28.76 v -25.2 h 6.4 v 25.2 z"
     id="path60"
     clip-path="url(#clipPath773)"
     transform="translate(-81.57,-223.79)" />
  <path
     class="cls-1"
     d="M 381.42,265.42 H 375 v -13.93 a 7.29,7.29 0 0 0 -1,-4.36 3.48,3.48 0 0 0 -3,-1.38 5.84,5.84 0 0 0 -2.62,0.66 7.88,7.88 0 0 0 -2.36,1.81 8.79,8.79 0 0 0 -1.61,2.65 v 14.55 H 358 v -25 h 5.82 v 4.66 a 9.09,9.09 0 0 1 2.45,-2.71 11.73,11.73 0 0 1 3.41,-1.71 13.55,13.55 0 0 1 4.14,-0.62 8,8 0 0 1 3.87,0.83 5.78,5.78 0 0 1 2.31,2.26 9.87,9.87 0 0 1 1.1,3.16 19.56,19.56 0 0 1 0.32,3.5 z"
     id="path62"
     clip-path="url(#clipPath769)"
     transform="translate(-81.57,-223.79)" />
  <path
     class="cls-1"
     d="m 398.82,265.9 a 10.5,10.5 0 0 1 -4.59,-1 10.92,10.92 0 0 1 -3.58,-2.77 13,13 0 0 1 -2.31,-4.07 15.45,15.45 0 0 1 0,-10 13.07,13.07 0 0 1 2.4,-4.17 10.84,10.84 0 0 1 3.7,-2.79 11.17,11.17 0 0 1 4.74,-1 9.92,9.92 0 0 1 5.14,1.3 10.77,10.77 0 0 1 3.66,3.51 v -4.43 h 5.62 v 23.82 a 10.91,10.91 0 0 1 -1.82,6.37 11.7,11.7 0 0 1 -5,4.06 17.34,17.34 0 0 1 -7.21,1.41 15.72,15.72 0 0 1 -6.92,-1.37 14,14 0 0 1 -4.86,-3.87 l 3.51,-3.41 a 10.09,10.09 0 0 0 3.63,2.79 11,11 0 0 0 4.64,1 9.82,9.82 0 0 0 3.75,-0.71 5.85,5.85 0 0 0 2.74,-2.17 6.63,6.63 0 0 0 1,-3.86 v -3.17 a 8.14,8.14 0 0 1 -3.48,3.34 10.39,10.39 0 0 1 -4.76,1.19 z m 2.17,-5.14 a 6.06,6.06 0 0 0 2,-0.34 7.38,7.38 0 0 0 1.76,-0.92 6.92,6.92 0 0 0 1.44,-1.37 5.38,5.38 0 0 0 0.91,-1.67 v -6 a 7.28,7.28 0 0 0 -1.56,-2.6 7.74,7.74 0 0 0 -2.31,-1.72 6.2,6.2 0 0 0 -2.67,-0.6 5.77,5.77 0 0 0 -2.67,0.63 6.31,6.31 0 0 0 -2.09,1.73 8.76,8.76 0 0 0 -1.34,2.51 8.91,8.91 0 0 0 -0.48,2.9 7.51,7.51 0 0 0 0.55,2.89 8,8 0 0 0 1.49,2.39 6.33,6.33 0 0 0 2.23,1.59 6.84,6.84 0 0 0 2.75,0.58 z"
     id="path64"
     clip-path="url(#clipPath765)"
     transform="translate(-81.57,-223.79)" />
  <path
     class="cls-1"
     d="m 81.57,265.22 v 0 0 0 l 0.31,-0.82 z"
     id="path66"
     clip-path="url(#clipPath761)"
     transform="translate(-81.57,-223.79)" />
  <path
     class="cls-1"
     d="m 112.93,228.63 h 0.32 a 59.07,59.07 0 0 1 -9,1.24 h 0.12 l 1.91,-0.25 0.42,-0.05 c 1.65,-0.21 3.53,-0.44 5.82,-0.8 z"
     id="path68"
     clip-path="url(#clipPath757)"
     transform="translate(-81.57,-223.79)" />
  <path
     class="cls-1"
     d="m 139.27,227.84 c -2.39,11.48 -6.62,26.77 -15.72,30 a 28.25,28.25 0 0 1 -8.57,1.36 h -0.53 c -1.38,0.06 -2.72,0.1 -3.81,0.13 h -0.11 c -0.75,0 -2.15,0.06 -2.38,0.09 h -0.4 a 7.11,7.11 0 0 0 -3.32,1 6,6 0 0 0 -1.6,1.46 6.14,6.14 0 0 0 -0.87,1.64 l -0.59,1.57 h -7 l 1.25,-3.33 a 12.18,12.18 0 0 1 5.08,-6.34 13.91,13.91 0 0 1 6.19,-2.05 l 0.41,-0.05 c 0.53,-0.07 1.34,-0.1 3.12,-0.15 h 0.18 c 1,0 2.33,-0.07 3.62,-0.13 h 0.49 0.09 a 21.53,21.53 0 0 0 6.4,-0.94 c 1.44,-0.52 4.25,-2.51 7.22,-10 -0.46,0.3 -0.87,0.55 -1.21,0.76 l -0.15,0.09 a 30.57,30.57 0 0 1 -8,3.31 38,38 0 0 1 -3.74,0.85 c -1.38,0.23 -2.46,0.34 -3.41,0.42 -1.77,0.15 -2.8,0.19 -3.79,0.23 -0.7,0 -1.43,0.06 -2.47,0.13 -4.22,0.26 -5.77,0.66 -7.14,1.3 l -0.26,0.12 a 11.65,11.65 0 0 0 -4.77,5.22 c -1,1.87 -3.35,6.85 -4.51,9.81 a 2.58,2.58 0 0 1 -0.47,0.78 H 81.58 L 81.89,264.3 82,264 c 0.59,-1.56 1.2,-3.07 1.81,-4.49 0,-0.07 0,-0.14 0.08,-0.2 1.82,-4.45 4.92,-11.32 6.33,-14.64 1,-2.32 1.77,-4.16 2.07,-4.92 1.16,-3 2.3,-5.08 4.7,-7 a 13.43,13.43 0 0 1 7.26,-3 v 0 a 64.91,64.91 0 0 0 6.8,-0.88 c 1.1,-0.18 2.18,-0.45 3.27,-0.65 0,0 -0.24,0.08 1.15,-0.22 1,-0.25 2,-0.51 2.91,-0.79 a 34.43,34.43 0 0 0 8.21,-3.42 c -0.69,2.79 -1.68,5.85 -5.72,8.39 a 16.66,16.66 0 0 1 -6.92,2.38 l -0.37,0.05 -2.47,0.37 c -1.35,0.19 -2.55,0.34 -3.65,0.48 -0.77,0.1 -1.5,0.18 -2.19,0.28 a 6.71,6.71 0 0 0 -3.89,1.47 c -1.34,1.09 -2,2.32 -2.83,4.49 l -0.18,0.47 c -0.09,0.21 -0.18,0.44 -0.26,0.67 a 35,35 0 0 1 7.08,-1 c 1.12,-0.07 1.93,-0.1 2.64,-0.13 1,0 1.89,-0.08 3.44,-0.21 0.81,-0.07 1.71,-0.16 2.81,-0.35 l 0.89,-0.17 v 0 c 4.15,-0.59 10.28,-3.21 16.52,-7.29 a 62.5,62.5 0 0 0 7.78,-5.85 z"
     id="path70"
     clip-path="url(#clipPath753)"
     transform="translate(-81.57,-223.79)" />
</svg>
