<svg id="Camada_1" data-name="Camada 1" xmlns="http://www.w3.org/2000/svg" viewBox="0 0 500 500"><defs><style>.cls-1{fill:#131114;}.cls-2{fill:#c6a465;}</style></defs><path class="cls-1" d="M159.65,243.49v21.93H153V231.28h5.34l17.6,22.5V231.33h6.58v34.09h-5.48Z"/><path class="cls-1" d="M190.71,256.09V240.46h6.49v14.21a7.23,7.23,0,0,0,1.06,4.3,3.6,3.6,0,0,0,3.12,1.45,6.58,6.58,0,0,0,2.48-.5,6.9,6.9,0,0,0,2.26-1.48,8.59,8.59,0,0,0,1.76-2.5V240.46h6.49v17.77a2.39,2.39,0,0,0,.33,1.43,1.67,1.67,0,0,0,1.16.52v5.24c-.64.1-1.18.17-1.61.22s-.83.07-1.18.07a4.51,4.51,0,0,1-2.77-.81,3.34,3.34,0,0,1-1.32-2.15l-.14-2a11.08,11.08,0,0,1-4.31,3.83,12.89,12.89,0,0,1-5.84,1.31,7.21,7.21,0,0,1-5.94-2.5C191.39,261.73,190.71,259.3,190.71,256.09Z"/><path class="cls-1" d="M245.58,237.1H234.71v28.32h-6.59V237.1h-11v-5.82h28.42Z"/><path class="cls-1" d="M263.8,245.8a12.81,12.81,0,0,0-5.29,1.13,6.91,6.91,0,0,0-3.37,3.2v15.29h-6.39v-25h5.91v5.15a11.41,11.41,0,0,1,3.44-4.09,8.38,8.38,0,0,1,4.4-1.63,4.18,4.18,0,0,0,.77,0,1.16,1.16,0,0,1,.53.07Z"/><path class="cls-1" d="M267.41,258.06a6.79,6.79,0,0,1,1.37-4.23,9,9,0,0,1,3.8-2.82,14.46,14.46,0,0,1,5.65-1,22.22,22.22,0,0,1,3.22.24,11.48,11.48,0,0,1,2.83.77v-1.38a4.61,4.61,0,0,0-1.39-3.59,6,6,0,0,0-4.18-1.28,11,11,0,0,0-4,.72,21,21,0,0,0-4,2.07l-2-4.18a18.52,18.52,0,0,1,5.08-2.48,18.8,18.8,0,0,1,5.5-.79q5.39,0,8.39,2.63t3,7.61v7.91a2.24,2.24,0,0,0,.36,1.43,1.74,1.74,0,0,0,1.18.52v5.24c-.58.1-1.1.18-1.57.24a5.42,5.42,0,0,1-1.17,0,4.36,4.36,0,0,1-2.91-.84,3.34,3.34,0,0,1-1.18-2.09l-.15-1.3a11.46,11.46,0,0,1-4.13,3.27,11.63,11.63,0,0,1-5,1.15,9.63,9.63,0,0,1-4.5-1,8,8,0,0,1-3.12-2.83A7.21,7.21,0,0,1,267.41,258.06Zm15.67,1.21a4.3,4.3,0,0,0,.87-1.08,2.29,2.29,0,0,0,.33-1v-2.49a13,13,0,0,0-2.5-.72,12.81,12.81,0,0,0-2.54-.26,7.43,7.43,0,0,0-4.12,1.05,3.23,3.23,0,0,0-1.61,2.79,3.45,3.45,0,0,0,.53,1.81,3.71,3.71,0,0,0,1.52,1.38,5.08,5.08,0,0,0,2.43.52,7.41,7.41,0,0,0,2.83-.57A6.75,6.75,0,0,0,283.08,259.27Z"/><path class="cls-1" d="M298.66,236.66v-6.34h6.4v6.34Zm0,28.76v-25.2h6.4v25.2Z"/><path class="cls-1" d="M336.27,265.42h-6.45V251.49a7.29,7.29,0,0,0-1-4.36,3.48,3.48,0,0,0-3-1.38,5.81,5.81,0,0,0-2.62.66,7.88,7.88,0,0,0-2.36,1.81,8.48,8.48,0,0,0-1.61,2.65v14.55h-6.39v-25h5.82v4.66a9,9,0,0,1,2.45-2.71,11.73,11.73,0,0,1,3.41-1.71,13.5,13.5,0,0,1,4.14-.62,8,8,0,0,1,3.87.83,5.78,5.78,0,0,1,2.31,2.26,10.12,10.12,0,0,1,1.1,3.16,19.53,19.53,0,0,1,.32,3.49Z"/><path class="cls-1" d="M343.81,236.66v-6.34h6.4v6.34Zm0,28.76v-25.2h6.4v25.2Z"/><path class="cls-1" d="M381.42,265.42H375V251.49a7.29,7.29,0,0,0-1-4.36,3.48,3.48,0,0,0-3-1.38,5.84,5.84,0,0,0-2.62.66,7.88,7.88,0,0,0-2.36,1.81,8.67,8.67,0,0,0-1.61,2.65v14.55H358v-25h5.82v4.66a9.09,9.09,0,0,1,2.45-2.71,11.73,11.73,0,0,1,3.41-1.71,13.55,13.55,0,0,1,4.14-.62,8,8,0,0,1,3.87.83,5.78,5.78,0,0,1,2.31,2.26,9.87,9.87,0,0,1,1.1,3.16,19.53,19.53,0,0,1,.32,3.49Z"/><path class="cls-1" d="M398.82,265.9a10.5,10.5,0,0,1-4.59-1,10.92,10.92,0,0,1-3.58-2.77,13,13,0,0,1-2.31-4.07,15.45,15.45,0,0,1,0-10,12.85,12.85,0,0,1,2.4-4.17,10.84,10.84,0,0,1,3.7-2.79,11.17,11.17,0,0,1,4.74-1,9.92,9.92,0,0,1,5.14,1.3,10.77,10.77,0,0,1,3.66,3.51v-4.43h5.62V264.3a10.91,10.91,0,0,1-1.82,6.37,11.7,11.7,0,0,1-5,4.06,17.34,17.34,0,0,1-7.21,1.41,15.72,15.72,0,0,1-6.92-1.37,14,14,0,0,1-4.86-3.87l3.51-3.41a10.09,10.09,0,0,0,3.63,2.79,11,11,0,0,0,4.64,1,9.82,9.82,0,0,0,3.75-.71,5.85,5.85,0,0,0,2.74-2.17,6.63,6.63,0,0,0,1-3.86v-3.17a8.14,8.14,0,0,1-3.48,3.34A10.39,10.39,0,0,1,398.82,265.9Zm2.17-5.14a6.06,6.06,0,0,0,2-.34,7.38,7.38,0,0,0,1.76-.92,6.92,6.92,0,0,0,1.44-1.37,5.38,5.38,0,0,0,.91-1.67v-6a7.28,7.28,0,0,0-1.56-2.6,7.74,7.74,0,0,0-2.31-1.72,6.2,6.2,0,0,0-2.67-.6,5.77,5.77,0,0,0-2.67.63,6.31,6.31,0,0,0-2.09,1.73,8.76,8.76,0,0,0-1.34,2.51,8.91,8.91,0,0,0-.48,2.9,7.51,7.51,0,0,0,.55,2.89,8,8,0,0,0,1.49,2.39,6.33,6.33,0,0,0,2.23,1.59A6.84,6.84,0,0,0,401,260.76Z"/><path class="cls-2" d="M81.57,265.22v0h0v0l.31-.82Z"/><path class="cls-2" d="M112.93,228.63l.32,0a59.07,59.07,0,0,1-9,1.24l.12,0,1.91-.25.42-.05c1.65-.21,3.53-.44,5.82-.8Z"/><path class="cls-2" d="M139.27,227.84c-2.39,11.48-6.62,26.77-15.72,30a28.25,28.25,0,0,1-8.57,1.36l-.53,0c-1.38.06-2.72.1-3.81.13h-.11c-.75,0-2.15.06-2.38.09l-.4,0a7.11,7.11,0,0,0-3.32,1,6,6,0,0,0-1.6,1.46,6.14,6.14,0,0,0-.87,1.64l-.59,1.57h-7l1.25-3.33a12.18,12.18,0,0,1,5.08-6.34,13.91,13.91,0,0,1,6.19-2.05l.41-.05c.53-.07,1.34-.1,3.12-.15h.18c1,0,2.33-.07,3.62-.13l.49,0h.09a21.53,21.53,0,0,0,6.4-.94c1.44-.52,4.25-2.51,7.22-10-.46.3-.87.55-1.21.75l-.15.1a30.57,30.57,0,0,1-8,3.31,38,38,0,0,1-3.74.85c-1.38.23-2.46.34-3.41.42-1.77.15-2.8.19-3.78.23-.71,0-1.44.06-2.48.13-4.22.26-5.77.66-7.14,1.3l-.26.12a11.65,11.65,0,0,0-4.77,5.22c-1,1.87-3.35,6.85-4.51,9.81a2.58,2.58,0,0,1-.47.78H81.58l.31-.82L82,264c.59-1.56,1.2-3.07,1.81-4.49,0-.07,0-.14.08-.2,1.82-4.45,4.92-11.32,6.33-14.64,1-2.32,1.77-4.16,2.07-4.92,1.16-3,2.3-5.08,4.7-7a13.43,13.43,0,0,1,7.26-3h0a64.91,64.91,0,0,0,6.8-.88c1.1-.18,2.18-.45,3.27-.65,0,0-.24.08,1.15-.22,1-.25,2-.51,2.91-.79a34.43,34.43,0,0,0,8.21-3.42c-.69,2.79-1.68,5.85-5.72,8.39a16.66,16.66,0,0,1-6.92,2.38l-.37.05-2.47.37c-1.35.19-2.55.34-3.65.48-.77.1-1.5.18-2.19.28a6.71,6.71,0,0,0-3.89,1.47c-1.34,1.09-2,2.32-2.83,4.49l-.18.47c-.09.21-.17.44-.26.67a35,35,0,0,1,7.08-1c1.12-.07,1.93-.1,2.64-.13,1,0,1.89-.08,3.44-.21.81-.07,1.71-.16,2.81-.35l.89-.17h0c4.15-.59,10.28-3.21,16.52-7.29A61.75,61.75,0,0,0,139.27,227.84Z"/></svg>